<svg width="27" height="27" viewBox="0 0 27 27" fill="none" xmlns="http://www.w3.org/2000/svg">
<path d="M25.5171 20.6125C25.5171 21.0325 25.4237 21.4641 25.2254 21.8841C25.0271 22.3041 24.7704 22.7008 24.4321 23.0741C23.8604 23.7041 23.2304 24.1591 22.5187 24.4508C21.8187 24.7425 21.0604 24.8941 20.2438 24.8941C19.0538 24.8941 17.7821 24.6141 16.4404 24.0425C15.0987 23.4708 13.7571 22.7008 12.4271 21.7325C11.0854 20.7525 9.81375 19.6675 8.60042 18.4658C7.39875 17.2525 6.31375 15.9808 5.34542 14.6508C4.38875 13.3208 3.61875 11.9908 3.05875 10.6725C2.49875 9.34246 2.21875 8.07079 2.21875 6.85746C2.21875 6.06412 2.35875 5.30579 2.63875 4.60579C2.91875 3.89412 3.36208 3.24079 3.98042 2.65746C4.72708 1.92246 5.54375 1.56079 6.40708 1.56079C6.73375 1.56079 7.06042 1.63079 7.35208 1.77079C7.65542 1.91079 7.92375 2.12079 8.13375 2.42412L10.8404 6.23912C11.0504 6.53079 11.2021 6.79912 11.3071 7.05579C11.4121 7.30079 11.4704 7.54579 11.4704 7.76746C11.4704 8.04746 11.3887 8.32746 11.2254 8.59579C11.0738 8.86412 10.8521 9.14412 10.5721 9.42412L9.68542 10.3458C9.55708 10.4741 9.49875 10.6258 9.49875 10.8125C9.49875 10.9058 9.51042 10.9875 9.53375 11.0808C9.56875 11.1741 9.60375 11.2441 9.62708 11.3141C9.83708 11.6991 10.1987 12.2008 10.7121 12.8075C11.2371 13.4141 11.7971 14.0325 12.4037 14.6508C13.0337 15.2691 13.6404 15.8408 14.2587 16.3658C14.8654 16.8791 15.3671 17.2291 15.7637 17.4391C15.8221 17.4625 15.8921 17.4975 15.9737 17.5325C16.0671 17.5675 16.1604 17.5791 16.2654 17.5791C16.4637 17.5791 16.6154 17.5091 16.7437 17.3808L17.6304 16.5058C17.9221 16.2141 18.2021 15.9925 18.4704 15.8525C18.7387 15.6891 19.0071 15.6075 19.2987 15.6075C19.5204 15.6075 19.7537 15.6541 20.0104 15.7591C20.2671 15.8641 20.5354 16.0158 20.8271 16.2141L24.6887 18.9558C24.9921 19.1658 25.2021 19.4108 25.3304 19.7025C25.4471 19.9941 25.5171 20.2858 25.5171 20.6125Z" stroke="#FF0404" stroke-width="2.5" stroke-miterlimit="10"/>
</svg>
